<svg width="24" height="24" viewBox="0 0 24 24" fill="none" xmlns="http://www.w3.org/2000/svg">
<path d="M12 2C6.5 2 2 6.5 2 12C2 17.5 6.5 22 12 22C17.5 22 22 17.5 22 12C22 6.5 17.5 2 12 2ZM16.2 10.3L11.4 15.1C11 15.5 10.4 15.5 10 15.1L7.8 12.9C7.4 12.5 7.4 11.9 7.8 11.5C8.2 11.1 8.8 11.1 9.2 11.5L10.7 13L14.8 8.9C15.2 8.5 15.8 8.5 16.2 8.9C16.6 9.3 16.6 9.9 16.2 10.3Z" fill="#2C2C2C"/>
<ellipse cx="12" cy="12" rx="6" ry="5" fill="#2C2C2C"/>
<path d="M12.94 12L15.8067 9.14001C15.9322 9.01448 16.0027 8.84421 16.0027 8.66668C16.0027 8.48914 15.9322 8.31888 15.8067 8.19335C15.6811 8.06781 15.5109 7.99728 15.3333 7.99728C15.1558 7.99728 14.9855 8.06781 14.86 8.19335L12 11.06L9.13999 8.19335C9.01445 8.06781 8.84419 7.99728 8.66666 7.99728C8.48912 7.99728 8.31886 8.06781 8.19332 8.19335C8.06779 8.31888 7.99726 8.48914 7.99726 8.66668C7.99726 8.84421 8.06779 9.01448 8.19332 9.14001L11.06 12L8.19332 14.86C8.13084 14.922 8.08124 14.9957 8.0474 15.077C8.01355 15.1582 7.99612 15.2453 7.99612 15.3333C7.99612 15.4214 8.01355 15.5085 8.0474 15.5897C8.08124 15.671 8.13084 15.7447 8.19332 15.8067C8.2553 15.8692 8.32903 15.9188 8.41027 15.9526C8.49151 15.9865 8.57865 16.0039 8.66666 16.0039C8.75466 16.0039 8.8418 15.9865 8.92304 15.9526C9.00428 15.9188 9.07801 15.8692 9.13999 15.8067L12 12.94L14.86 15.8067C14.922 15.8692 14.9957 15.9188 15.0769 15.9526C15.1582 15.9865 15.2453 16.0039 15.3333 16.0039C15.4213 16.0039 15.5085 15.9865 15.5897 15.9526C15.6709 15.9188 15.7447 15.8692 15.8067 15.8067C15.8691 15.7447 15.9187 15.671 15.9526 15.5897C15.9864 15.5085 16.0039 15.4214 16.0039 15.3333C16.0039 15.2453 15.9864 15.1582 15.9526 15.077C15.9187 14.9957 15.8691 14.922 15.8067 14.86L12.94 12Z" fill="white"/>
</svg>
