<svg width="45" height="46" viewBox="0 0 45 46" fill="none" xmlns="http://www.w3.org/2000/svg">
<line y1="39.6923" x2="45" y2="39.6923" stroke="#2C2C2C" stroke-width="2"/>
<line y1="6.07693" x2="45" y2="6.07693" stroke="#2C2C2C" stroke-width="2"/>
<line y1="22.8846" x2="45" y2="22.8846" stroke="#2C2C2C" stroke-width="2"/>
<path d="M17.9 5.75C17.9 8.35717 15.7449 10.5 13.05 10.5C10.3551 10.5 8.20001 8.35717 8.20001 5.75C8.20001 3.14283 10.3551 1 13.05 1C15.7449 1 17.9 3.14283 17.9 5.75Z" fill="white" stroke="#2C2C2C" stroke-width="2"/>
<path d="M24.2 40.25C24.2 42.8572 22.0449 45 19.35 45C16.6551 45 14.5 42.8572 14.5 40.25C14.5 37.6428 16.6551 35.5 19.35 35.5C22.0449 35.5 24.2 37.6428 24.2 40.25Z" fill="white" stroke="#2C2C2C" stroke-width="2"/>
<path d="M39.5 22.5577C39.5 25.1648 37.3449 27.3077 34.65 27.3077C31.9551 27.3077 29.8 25.1648 29.8 22.5577C29.8 19.9505 31.9551 17.8077 34.65 17.8077C37.3449 17.8077 39.5 19.9505 39.5 22.5577Z" fill="white" stroke="#2C2C2C" stroke-width="2"/>
</svg>
