<svg width="48" height="49" viewBox="0 0 48 49" fill="none" xmlns="http://www.w3.org/2000/svg">
<path d="M41.0294 24C41.0294 33.9295 33.1606 41.9412 23.5 41.9412C13.8394 41.9412 5.97058 33.9295 5.97058 24C5.97058 14.0705 13.8394 6.05884 23.5 6.05884C33.1606 6.05884 41.0294 14.0705 41.0294 24Z" fill="white" stroke="#2C2C2C" stroke-width="2"/>
<path d="M33.0882 24C33.0882 29.4462 28.7748 33.8235 23.5 33.8235C18.2252 33.8235 13.9118 29.4462 13.9118 24C13.9118 18.5538 18.2252 14.1765 23.5 14.1765C28.7748 14.1765 33.0882 18.5538 33.0882 24Z" fill="white" stroke="#2C2C2C" stroke-width="2"/>
<line x1="23" y1="1.98158e-07" x2="23" y2="6.76471" stroke="#2C2C2C" stroke-width="2"/>
<line x1="47.6176" y1="24" x2="41" y2="24" stroke="#2C2C2C" stroke-width="2"/>
<line x1="23" y1="42" x2="23" y2="48.7647" stroke="#2C2C2C" stroke-width="2"/>
<path d="M-1.90735e-06 24H6.61765" stroke="#2C2C2C" stroke-width="2"/>
</svg>
