<svg width="73" height="39" viewBox="0 0 73 39" fill="none" xmlns="http://www.w3.org/2000/svg">
<path d="M1.05682 36V27.2727H6.28977V28.2102H2.11364V31.1591H5.89773V32.0966H2.11364V36H1.05682ZM7.96342 36V29.4545H8.96911V36H7.96342ZM8.47479 28.3636C8.27876 28.3636 8.10973 28.2969 7.96768 28.1634C7.82848 28.0298 7.75888 27.8693 7.75888 27.6818C7.75888 27.4943 7.82848 27.3338 7.96768 27.2003C8.10973 27.0668 8.27876 27 8.47479 27C8.67081 27 8.83842 27.0668 8.97763 27.2003C9.11967 27.3338 9.1907 27.4943 9.1907 27.6818C9.1907 27.8693 9.11967 28.0298 8.97763 28.1634C8.83842 28.2969 8.67081 28.3636 8.47479 28.3636ZM11.8168 32.0625V36H10.8111V29.4545H11.7827V30.4773H11.8679C12.0213 30.1449 12.2543 29.8778 12.5668 29.6761C12.8793 29.4716 13.2827 29.3693 13.777 29.3693C14.2202 29.3693 14.608 29.4602 14.9403 29.642C15.2727 29.821 15.5313 30.0938 15.7159 30.4602C15.9006 30.8239 15.9929 31.2841 15.9929 31.8409V36H14.9872V31.9091C14.9872 31.3949 14.8537 30.9943 14.5866 30.7074C14.3196 30.4176 13.9531 30.2727 13.4872 30.2727C13.1662 30.2727 12.8793 30.3423 12.6264 30.4815C12.3764 30.6207 12.179 30.8239 12.0341 31.0909C11.8892 31.358 11.8168 31.6818 11.8168 32.0625ZM20.3022 36.1364C19.7567 36.1364 19.2752 35.9986 18.8576 35.723C18.44 35.4446 18.1133 35.0526 17.8775 34.5469C17.6417 34.0384 17.5238 33.4375 17.5238 32.7443C17.5238 32.0568 17.6417 31.4602 17.8775 30.9545C18.1133 30.4489 18.4414 30.0582 18.8619 29.7827C19.2823 29.5071 19.7681 29.3693 20.3192 29.3693C20.7454 29.3693 21.082 29.4403 21.3292 29.5824C21.5792 29.7216 21.7695 29.8807 21.9002 30.0597C22.0337 30.2358 22.1374 30.3807 22.2113 30.4943H22.2965V27.2727H23.3022V36H22.3306V34.9943H22.2113C22.1374 35.1136 22.0323 35.2642 21.896 35.446C21.7596 35.625 21.565 35.7855 21.3121 35.9276C21.0593 36.0668 20.7227 36.1364 20.3022 36.1364ZM20.4386 35.233C20.842 35.233 21.1829 35.1278 21.4613 34.9176C21.7397 34.7045 21.9513 34.4105 22.0962 34.0355C22.2411 33.6577 22.3136 33.2216 22.3136 32.7273C22.3136 32.2386 22.2425 31.8111 22.1005 31.4446C21.9585 31.0753 21.7482 30.7884 21.4698 30.5838C21.1914 30.3764 20.8477 30.2727 20.4386 30.2727C20.0124 30.2727 19.6573 30.3821 19.3732 30.6009C19.092 30.8168 18.8803 31.1108 18.7383 31.483C18.5991 31.8523 18.5295 32.267 18.5295 32.7273C18.5295 33.1932 18.6005 33.6165 18.7425 33.9972C18.8874 34.375 19.1005 34.6761 19.3817 34.9006C19.6658 35.1222 20.0181 35.233 20.4386 35.233ZM35.7156 27.2727V36H34.6928L29.9371 29.1477H29.8519V36H28.7951V27.2727H29.8178L34.5906 34.142H34.6758V27.2727H35.7156ZM40.4382 36.1364C39.8075 36.1364 39.2635 35.9972 38.8061 35.7188C38.3516 35.4375 38.0007 35.0455 37.7536 34.5426C37.5092 34.0369 37.3871 33.4489 37.3871 32.7784C37.3871 32.108 37.5092 31.517 37.7536 31.0057C38.0007 30.4915 38.3445 30.0909 38.7848 29.804C39.228 29.5142 39.745 29.3693 40.3359 29.3693C40.6768 29.3693 41.0135 29.4261 41.3459 29.5398C41.6783 29.6534 41.9808 29.8381 42.2536 30.0938C42.5263 30.3466 42.7436 30.6818 42.9055 31.0994C43.0675 31.517 43.1484 32.0312 43.1484 32.642V33.0682H38.103V32.1989H42.1257C42.1257 31.8295 42.0518 31.5 41.9041 31.2102C41.7592 30.9205 41.5518 30.6918 41.282 30.5241C41.0149 30.3565 40.6996 30.2727 40.3359 30.2727C39.9354 30.2727 39.5888 30.3722 39.2962 30.571C39.0064 30.767 38.7834 31.0227 38.6271 31.3381C38.4709 31.6534 38.3928 31.9915 38.3928 32.3523V32.9318C38.3928 33.4261 38.478 33.8452 38.6484 34.1889C38.8217 34.5298 39.0618 34.7898 39.3686 34.9688C39.6754 35.1449 40.032 35.233 40.4382 35.233C40.7024 35.233 40.9411 35.196 41.1541 35.1222C41.37 35.0455 41.5561 34.9318 41.7124 34.7812C41.8686 34.6278 41.9893 34.4375 42.0746 34.2102L43.0462 34.483C42.9439 34.8125 42.772 35.1023 42.5305 35.3523C42.2891 35.5994 41.9908 35.7926 41.6357 35.9318C41.2805 36.0682 40.8814 36.1364 40.4382 36.1364ZM46.6044 36.1534C46.1896 36.1534 45.8132 36.0753 45.4751 35.919C45.1371 35.7599 44.8686 35.5312 44.6697 35.233C44.4709 34.9318 44.3714 34.5682 44.3714 34.142C44.3714 33.767 44.4453 33.4631 44.593 33.2301C44.7408 32.9943 44.9382 32.8097 45.1854 32.6761C45.4325 32.5426 45.7053 32.4432 46.0036 32.3778C46.3047 32.3097 46.6072 32.2557 46.9112 32.2159C47.3089 32.1648 47.6314 32.1264 47.8786 32.1009C48.1286 32.0724 48.3104 32.0256 48.424 31.9602C48.5405 31.8949 48.5987 31.7812 48.5987 31.6193V31.5852C48.5987 31.1648 48.4837 30.8381 48.2536 30.6051C48.0263 30.3722 47.6811 30.2557 47.218 30.2557C46.7379 30.2557 46.3615 30.3608 46.0888 30.571C45.8161 30.7812 45.6243 31.0057 45.5135 31.2443L44.5589 30.9034C44.7294 30.5057 44.9567 30.196 45.2408 29.9744C45.5277 29.75 45.8402 29.5937 46.1783 29.5057C46.5192 29.4148 46.8544 29.3693 47.1839 29.3693C47.3942 29.3693 47.6357 29.3949 47.9084 29.446C48.1839 29.4943 48.4496 29.5952 48.7053 29.7486C48.9638 29.902 49.1783 30.1335 49.3487 30.4432C49.5192 30.7528 49.6044 31.1676 49.6044 31.6875V36H48.5987V35.1136H48.5476C48.4794 35.2557 48.3658 35.4077 48.2067 35.5696C48.0476 35.7315 47.8359 35.8693 47.5717 35.983C47.3075 36.0966 46.9851 36.1534 46.6044 36.1534ZM46.7578 35.25C47.1555 35.25 47.4908 35.1719 47.7635 35.0156C48.0391 34.8594 48.2464 34.6577 48.3857 34.4105C48.5277 34.1634 48.5987 33.9034 48.5987 33.6307V32.7102C48.5561 32.7614 48.4624 32.8082 48.3175 32.8509C48.1754 32.8906 48.0107 32.9261 47.8232 32.9574C47.6385 32.9858 47.4581 33.0114 47.282 33.0341C47.1087 33.054 46.968 33.071 46.8601 33.0852C46.5987 33.1193 46.3544 33.1747 46.1271 33.2514C45.9027 33.3253 45.7209 33.4375 45.5817 33.5881C45.4453 33.7358 45.3771 33.9375 45.3771 34.1932C45.3771 34.5426 45.5064 34.8068 45.7649 34.9858C46.0263 35.1619 46.3572 35.25 46.7578 35.25ZM51.44 36V29.4545H52.4116V30.4432H52.4798C52.5991 30.1193 52.815 29.8565 53.1275 29.6548C53.44 29.4531 53.7923 29.3523 54.1843 29.3523C54.2582 29.3523 54.3505 29.3537 54.4613 29.3565C54.5721 29.3594 54.6559 29.3636 54.7127 29.3693V30.392C54.6786 30.3835 54.6005 30.3707 54.4783 30.3537C54.359 30.3338 54.2326 30.3239 54.0991 30.3239C53.7809 30.3239 53.4968 30.3906 53.2468 30.5241C52.9996 30.6548 52.8036 30.8366 52.6587 31.0696C52.5167 31.2997 52.4457 31.5625 52.4457 31.858V36H51.44ZM58.4499 36.1364C57.8192 36.1364 57.2752 35.9972 56.8178 35.7188C56.3633 35.4375 56.0124 35.0455 55.7653 34.5426C55.521 34.0369 55.3988 33.4489 55.3988 32.7784C55.3988 32.108 55.521 31.517 55.7653 31.0057C56.0124 30.4915 56.3562 30.0909 56.7965 29.804C57.2397 29.5142 57.7567 29.3693 58.3477 29.3693C58.6886 29.3693 59.0252 29.4261 59.3576 29.5398C59.69 29.6534 59.9925 29.8381 60.2653 30.0938C60.538 30.3466 60.7553 30.6818 60.9173 31.0994C61.0792 31.517 61.1602 32.0312 61.1602 32.642V33.0682H56.1147V32.1989H60.1374C60.1374 31.8295 60.0636 31.5 59.9158 31.2102C59.771 30.9205 59.5636 30.6918 59.2937 30.5241C59.0266 30.3565 58.7113 30.2727 58.3477 30.2727C57.9471 30.2727 57.6005 30.3722 57.3079 30.571C57.0181 30.767 56.7951 31.0227 56.6388 31.3381C56.4826 31.6534 56.4045 31.9915 56.4045 32.3523V32.9318C56.4045 33.4261 56.4897 33.8452 56.6602 34.1889C56.8335 34.5298 57.0735 34.7898 57.3803 34.9688C57.6871 35.1449 58.0437 35.233 58.4499 35.233C58.7141 35.233 58.9528 35.196 59.1658 35.1222C59.3817 35.0455 59.5678 34.9318 59.7241 34.7812C59.8803 34.6278 60.0011 34.4375 60.0863 34.2102L61.0579 34.483C60.9556 34.8125 60.7837 35.1023 60.5423 35.3523C60.3008 35.5994 60.0025 35.7926 59.6474 35.9318C59.2923 36.0682 58.8931 36.1364 58.4499 36.1364ZM67.3263 30.9205L66.4229 31.1761C66.3661 31.0256 66.2823 30.8793 66.1715 30.7372C66.0636 30.5923 65.9158 30.473 65.7283 30.3793C65.5408 30.2855 65.3008 30.2386 65.0082 30.2386C64.6076 30.2386 64.2738 30.331 64.0067 30.5156C63.7425 30.6974 63.6104 30.929 63.6104 31.2102C63.6104 31.4602 63.7013 31.6577 63.8832 31.8026C64.065 31.9474 64.3491 32.0682 64.7354 32.1648L65.707 32.4034C66.2923 32.5455 66.7283 32.7628 67.0153 33.0554C67.3022 33.3452 67.4457 33.7187 67.4457 34.1761C67.4457 34.5511 67.3377 34.8864 67.1218 35.1818C66.9087 35.4773 66.6104 35.7102 66.2269 35.8807C65.8434 36.0511 65.3974 36.1364 64.8888 36.1364C64.2212 36.1364 63.6687 35.9915 63.2312 35.7017C62.7937 35.4119 62.5167 34.9886 62.4002 34.4318L63.3548 34.1932C63.4457 34.5455 63.6175 34.8097 63.8704 34.9858C64.1261 35.1619 64.4599 35.25 64.8718 35.25C65.3406 35.25 65.7127 35.1506 65.9883 34.9517C66.2667 34.75 66.4059 34.5085 66.4059 34.2273C66.4059 34 66.3263 33.8097 66.1673 33.6562C66.0082 33.5 65.7638 33.3835 65.4343 33.3068L64.3434 33.0511C63.744 32.9091 63.3036 32.6889 63.0224 32.3906C62.744 32.0895 62.6048 31.7131 62.6048 31.2614C62.6048 30.892 62.7085 30.5653 62.9158 30.2812C63.1261 29.9972 63.4116 29.7741 63.7724 29.6122C64.136 29.4503 64.5479 29.3693 65.0082 29.3693C65.6559 29.3693 66.1644 29.5114 66.5337 29.7955C66.9059 30.0795 67.1701 30.4545 67.3263 30.9205ZM71.8061 29.4545V30.3068H68.4141V29.4545H71.8061ZM69.4027 27.8864H70.4084V34.125C70.4084 34.4091 70.4496 34.6222 70.532 34.7642C70.6172 34.9034 70.7251 34.9972 70.8558 35.0455C70.9893 35.0909 71.13 35.1136 71.2777 35.1136C71.3885 35.1136 71.4794 35.108 71.5504 35.0966C71.6214 35.0824 71.6783 35.071 71.7209 35.0625L71.9254 35.9659C71.8572 35.9915 71.7621 36.017 71.6399 36.0426C71.5178 36.071 71.3629 36.0852 71.1754 36.0852C70.8913 36.0852 70.6129 36.0241 70.3402 35.902C70.0703 35.7798 69.8459 35.5938 69.6669 35.3438C69.4908 35.0938 69.4027 34.7784 69.4027 34.3977V27.8864Z" fill="#2C2C2C"/>
<path d="M46.07 16.83L44 14.71C43.5547 14.2868 42.9931 14.0063 42.3872 13.9047C41.7813 13.8032 41.1589 13.8851 40.6 14.14L39.7 13.24C40.7605 11.8229 41.2449 10.0567 41.0555 8.29684C40.8662 6.537 40.0172 4.91423 38.6794 3.7552C37.3417 2.59618 35.6145 1.98696 33.8457 2.05019C32.0768 2.11341 30.3975 2.84439 29.146 4.09597C27.8944 5.34755 27.1634 7.0268 27.1002 8.79567C27.0369 10.5645 27.6462 12.2917 28.8052 13.6294C29.9642 14.9672 31.587 15.8162 33.3468 16.0055C35.1067 16.1949 36.8729 15.7106 38.29 14.65L39.18 15.54C38.8951 16.0996 38.793 16.7346 38.8881 17.3553C38.9831 17.9761 39.2706 18.5513 39.71 19L41.83 21.12C42.3925 21.6818 43.155 21.9974 43.95 21.9974C44.745 21.9974 45.5075 21.6818 46.07 21.12C46.3557 20.8406 46.5828 20.5069 46.7378 20.1386C46.8928 19.7702 46.9726 19.3746 46.9726 18.975C46.9726 18.5754 46.8928 18.1798 46.7378 17.8114C46.5828 17.4431 46.3557 17.1094 46.07 16.83ZM37.59 12.59C36.8902 13.288 35.9993 13.7629 35.0297 13.9549C34.0602 14.1468 33.0555 14.047 32.1426 13.6682C31.2297 13.2894 30.4496 12.6485 29.9007 11.8265C29.3519 11.0046 29.0589 10.0384 29.0589 9.05C29.0589 8.06163 29.3519 7.09544 29.9007 6.27347C30.4496 5.45149 31.2297 4.81062 32.1426 4.43182C33.0555 4.05301 34.0602 3.95325 35.0297 4.14515C35.9993 4.33706 36.8902 4.812 37.59 5.51C38.0556 5.97446 38.4251 6.52621 38.6771 7.13367C38.9292 7.74112 39.0589 8.39233 39.0589 9.05C39.0589 9.70768 38.9292 10.3589 38.6771 10.9663C38.4251 11.5738 38.0556 12.1255 37.59 12.59ZM44.66 19.66C44.567 19.7537 44.4564 19.8281 44.3346 19.8789C44.2127 19.9297 44.082 19.9558 43.95 19.9558C43.818 19.9558 43.6873 19.9297 43.5654 19.8789C43.4436 19.8281 43.333 19.7537 43.24 19.66L41.12 17.54C41.0263 17.447 40.9519 17.3364 40.9011 17.2146C40.8503 17.0927 40.8242 16.962 40.8242 16.83C40.8242 16.698 40.8503 16.5673 40.9011 16.4454C40.9519 16.3236 41.0263 16.213 41.12 16.12C41.213 16.0263 41.3236 15.9519 41.4454 15.9011C41.5673 15.8503 41.698 15.8242 41.83 15.8242C41.962 15.8242 42.0927 15.8503 42.2146 15.9011C42.3364 15.9519 42.447 16.0263 42.54 16.12L44.66 18.24C44.7537 18.333 44.8281 18.4436 44.8789 18.5654C44.9296 18.6873 44.9558 18.818 44.9558 18.95C44.9558 19.082 44.9296 19.2127 44.8789 19.3346C44.8281 19.4564 44.7537 19.567 44.66 19.66Z" fill="#2C2C2C"/>
</svg>
