<svg width="47" height="39" viewBox="0 0 47 39" fill="none" xmlns="http://www.w3.org/2000/svg">
<path d="M33.32 9.55L31.43 8.92L32.32 7.14C32.4102 6.95369 32.4404 6.74397 32.4064 6.53978C32.3723 6.33558 32.2758 6.14699 32.13 6L30 3.87C29.8522 3.72209 29.6618 3.62421 29.4555 3.59013C29.2493 3.55605 29.0375 3.58748 28.85 3.68L27.07 4.57L26.44 2.68C26.3735 2.483 26.2472 2.31163 26.0787 2.18975C25.9102 2.06787 25.7079 2.00155 25.5 2H22.5C22.2904 1.99946 22.0858 2.06482 21.9154 2.18685C21.7449 2.30887 21.6171 2.48138 21.55 2.68L20.92 4.57L19.14 3.68C18.9537 3.58978 18.744 3.55961 18.5398 3.59364C18.3356 3.62767 18.147 3.72423 18 3.87L15.87 6C15.7221 6.14777 15.6242 6.33818 15.5901 6.54446C15.556 6.75074 15.5875 6.96251 15.68 7.15L16.57 8.93L14.68 9.56C14.483 9.62654 14.3116 9.75283 14.1898 9.92131C14.0679 10.0898 14.0015 10.2921 14 10.5V13.5C13.9995 13.7096 14.0648 13.9142 14.1868 14.0846C14.3089 14.2551 14.4814 14.3829 14.68 14.45L16.57 15.08L15.68 16.86C15.5898 17.0463 15.5596 17.256 15.5936 17.4602C15.6277 17.6644 15.7242 17.853 15.87 18L18 20.13C18.1478 20.2779 18.3382 20.3758 18.5445 20.4099C18.7507 20.444 18.9625 20.4125 19.15 20.32L20.93 19.43L21.56 21.32C21.6271 21.5186 21.7549 21.6911 21.9254 21.8132C22.0958 21.9352 22.3004 22.0005 22.51 22H25.51C25.7196 22.0005 25.9242 21.9352 26.0946 21.8132C26.2651 21.6911 26.3929 21.5186 26.46 21.32L27.09 19.43L28.87 20.32C29.0551 20.4079 29.2628 20.4369 29.4649 20.4029C29.667 20.3689 29.8538 20.2737 30 20.13L32.13 18C32.2779 17.8522 32.3758 17.6618 32.4099 17.4555C32.444 17.2493 32.4125 17.0375 32.32 16.85L31.43 15.07L33.32 14.44C33.517 14.3735 33.6884 14.2472 33.8103 14.0787C33.9321 13.9102 33.9985 13.7079 34 13.5V10.5C34.0005 10.2904 33.9352 10.0858 33.8132 9.91537C33.6911 9.7449 33.5186 9.61709 33.32 9.55ZM32 12.78L30.8 13.18C30.5241 13.2695 30.2709 13.418 30.0581 13.6151C29.8452 13.8122 29.6778 14.0533 29.5675 14.3216C29.4571 14.5899 29.4064 14.879 29.419 15.1688C29.4315 15.4586 29.5069 15.7422 29.64 16L30.21 17.14L29.11 18.24L28 17.64C27.7436 17.5122 27.4627 17.4411 27.1763 17.4313C26.89 17.4215 26.6049 17.4734 26.3403 17.5834C26.0758 17.6934 25.8379 17.8589 25.6429 18.0688C25.4479 18.2787 25.3003 18.5281 25.21 18.8L24.81 20H23.22L22.82 18.8C22.7305 18.5241 22.582 18.2709 22.3849 18.0581C22.1878 17.8452 21.9467 17.6778 21.6784 17.5675C21.4101 17.4571 21.1211 17.4064 20.8312 17.419C20.5414 17.4315 20.2578 17.5069 20 17.64L18.86 18.21L17.76 17.11L18.36 16C18.4931 15.7422 18.5685 15.4586 18.581 15.1688C18.5936 14.879 18.5429 14.5899 18.4325 14.3216C18.3222 14.0533 18.1548 13.8122 17.9419 13.6151C17.7291 13.418 17.4759 13.2695 17.2 13.18L16 12.78V11.22L17.2 10.82C17.4759 10.7305 17.7291 10.582 17.9419 10.3849C18.1548 10.1878 18.3222 9.94671 18.4325 9.67842C18.5429 9.41014 18.5936 9.12105 18.581 8.83123C18.5685 8.5414 18.4931 8.25777 18.36 8L17.79 6.89L18.89 5.79L20 6.36C20.2578 6.4931 20.5414 6.56852 20.8312 6.58105C21.1211 6.59358 21.4101 6.5429 21.6784 6.43254C21.9467 6.32218 22.1878 6.15478 22.3849 5.94195C22.582 5.72912 22.7305 5.47595 22.82 5.2L23.22 4H24.78L25.18 5.2C25.2695 5.47595 25.418 5.72912 25.6151 5.94195C25.8122 6.15478 26.0533 6.32218 26.3216 6.43254C26.5899 6.5429 26.879 6.59358 27.1688 6.58105C27.4586 6.56852 27.7422 6.4931 28 6.36L29.14 5.79L30.24 6.89L29.64 8C29.5122 8.25645 29.4411 8.53735 29.4313 8.82369C29.4215 9.11003 29.4734 9.39513 29.5834 9.65969C29.6934 9.92424 29.8589 10.1621 30.0688 10.3571C30.2787 10.5521 30.5281 10.6997 30.8 10.79L32 11.19V12.78ZM24 8C23.2089 8 22.4355 8.2346 21.7777 8.67413C21.1199 9.11365 20.6072 9.73836 20.3045 10.4693C20.0017 11.2002 19.9225 12.0044 20.0769 12.7804C20.2312 13.5563 20.6122 14.269 21.1716 14.8284C21.731 15.3878 22.4437 15.7688 23.2196 15.9231C23.9956 16.0775 24.7998 15.9983 25.5307 15.6955C26.2616 15.3928 26.8864 14.8801 27.3259 14.2223C27.7654 13.5645 28 12.7911 28 12C28 10.9391 27.5786 9.92172 26.8284 9.17158C26.0783 8.42143 25.0609 8 24 8ZM24 14C23.6044 14 23.2178 13.8827 22.8889 13.6629C22.56 13.4432 22.3036 13.1308 22.1522 12.7654C22.0009 12.3999 21.9613 11.9978 22.0384 11.6098C22.1156 11.2219 22.3061 10.8655 22.5858 10.5858C22.8655 10.3061 23.2219 10.1156 23.6098 10.0384C23.9978 9.96126 24.3999 10.0009 24.7654 10.1522C25.1308 10.3036 25.4432 10.56 25.6629 10.8889C25.8827 11.2178 26 11.6044 26 12C26 12.5304 25.7893 13.0391 25.4142 13.4142C25.0391 13.7893 24.5304 14 24 14Z" fill="#2C2C2C"/>
<path d="M5.82955 29.4545C5.77841 29.0227 5.57102 28.6875 5.20739 28.4489C4.84375 28.2102 4.39773 28.0909 3.86932 28.0909C3.48295 28.0909 3.14489 28.1534 2.85511 28.2784C2.56818 28.4034 2.34375 28.5753 2.18182 28.794C2.02273 29.0128 1.94318 29.2614 1.94318 29.5398C1.94318 29.7727 1.99858 29.973 2.10938 30.1406C2.22301 30.3054 2.3679 30.4432 2.54403 30.554C2.72017 30.6619 2.90483 30.7514 3.09801 30.8224C3.29119 30.8906 3.46875 30.946 3.63068 30.9886L4.51705 31.2273C4.74432 31.2869 4.99716 31.3693 5.27557 31.4744C5.55682 31.5795 5.82528 31.723 6.08097 31.9048C6.33949 32.0838 6.55256 32.3139 6.72017 32.5952C6.88778 32.8764 6.97159 33.2216 6.97159 33.6307C6.97159 34.1023 6.84801 34.5284 6.60085 34.9091C6.35653 35.2898 5.99858 35.5923 5.52699 35.8168C5.05824 36.0412 4.48864 36.1534 3.81818 36.1534C3.19318 36.1534 2.65199 36.0526 2.1946 35.8509C1.74006 35.6491 1.3821 35.3679 1.12074 35.0071C0.862216 34.6463 0.715909 34.2273 0.681818 33.75H1.77273C1.80114 34.0795 1.91193 34.3523 2.10511 34.5682C2.30114 34.7812 2.5483 34.9403 2.84659 35.0455C3.14773 35.1477 3.47159 35.1989 3.81818 35.1989C4.22159 35.1989 4.58381 35.1335 4.90483 35.0028C5.22585 34.8693 5.48011 34.6847 5.66761 34.4489C5.85511 34.2102 5.94886 33.9318 5.94886 33.6136C5.94886 33.3239 5.8679 33.0881 5.70597 32.9062C5.54403 32.7244 5.33097 32.5767 5.06676 32.4631C4.80256 32.3494 4.51705 32.25 4.21023 32.1648L3.13636 31.858C2.45455 31.6619 1.91477 31.3821 1.51705 31.0185C1.11932 30.6548 0.920455 30.179 0.920455 29.5909C0.920455 29.1023 1.05256 28.6761 1.31676 28.3125C1.58381 27.946 1.94176 27.6619 2.39062 27.4602C2.84233 27.2557 3.34659 27.1534 3.90341 27.1534C4.46591 27.1534 4.96591 27.2543 5.40341 27.456C5.84091 27.6548 6.1875 27.9276 6.44318 28.2741C6.7017 28.6207 6.83807 29.0142 6.85227 29.4545H5.82955ZM11.3171 36.1364C10.6864 36.1364 10.1424 35.9972 9.68501 35.7188C9.23047 35.4375 8.87962 35.0455 8.63246 34.5426C8.38814 34.0369 8.26598 33.4489 8.26598 32.7784C8.26598 32.108 8.38814 31.517 8.63246 31.0057C8.87962 30.4915 9.22337 30.0909 9.66371 29.804C10.1069 29.5142 10.6239 29.3693 11.2148 29.3693C11.5558 29.3693 11.8924 29.4261 12.2248 29.5398C12.5572 29.6534 12.8597 29.8381 13.1325 30.0938C13.4052 30.3466 13.6225 30.6818 13.7844 31.0994C13.9464 31.517 14.0273 32.0312 14.0273 32.642V33.0682H8.98189V32.1989H13.0046C13.0046 31.8295 12.9308 31.5 12.783 31.2102C12.6381 30.9205 12.4308 30.6918 12.1609 30.5241C11.8938 30.3565 11.5785 30.2727 11.2148 30.2727C10.8143 30.2727 10.4677 30.3722 10.1751 30.571C9.8853 30.767 9.66229 31.0227 9.50604 31.3381C9.34979 31.6534 9.27166 31.9915 9.27166 32.3523V32.9318C9.27166 33.4261 9.35689 33.8452 9.52734 34.1889C9.70064 34.5298 9.9407 34.7898 10.2475 34.9688C10.5543 35.1449 10.9109 35.233 11.3171 35.233C11.5813 35.233 11.82 35.196 12.033 35.1222C12.2489 35.0455 12.435 34.9318 12.5913 34.7812C12.7475 34.6278 12.8683 34.4375 12.9535 34.2102L13.9251 34.483C13.8228 34.8125 13.6509 35.1023 13.4094 35.3523C13.168 35.5994 12.8697 35.7926 12.5146 35.9318C12.1594 36.0682 11.7603 36.1364 11.3171 36.1364ZM18.4038 29.4545V30.3068H15.0117V29.4545H18.4038ZM16.0004 27.8864H17.006V34.125C17.006 34.4091 17.0472 34.6222 17.1296 34.7642C17.2148 34.9034 17.3228 34.9972 17.4535 35.0455C17.587 35.0909 17.7276 35.1136 17.8754 35.1136C17.9862 35.1136 18.0771 35.108 18.1481 35.0966C18.2191 35.0824 18.2759 35.071 18.3185 35.0625L18.5231 35.9659C18.4549 35.9915 18.3597 36.017 18.2376 36.0426C18.1154 36.071 17.9606 36.0852 17.7731 36.0852C17.489 36.0852 17.2106 36.0241 16.9379 35.902C16.668 35.7798 16.4435 35.5938 16.2646 35.3438C16.0884 35.0938 16.0004 34.7784 16.0004 34.3977V27.8864ZM22.7631 29.4545V30.3068H19.3711V29.4545H22.7631ZM20.3597 27.8864H21.3654V34.125C21.3654 34.4091 21.4066 34.6222 21.489 34.7642C21.5742 34.9034 21.6822 34.9972 21.8129 35.0455C21.9464 35.0909 22.087 35.1136 22.2347 35.1136C22.3455 35.1136 22.4364 35.108 22.5075 35.0966C22.5785 35.0824 22.6353 35.071 22.6779 35.0625L22.8825 35.9659C22.8143 35.9915 22.7191 36.017 22.5969 36.0426C22.4748 36.071 22.32 36.0852 22.1325 36.0852C21.8484 36.0852 21.57 36.0241 21.2972 35.902C21.0273 35.7798 20.8029 35.5938 20.6239 35.3438C20.4478 35.0938 20.3597 34.7784 20.3597 34.3977V27.8864ZM24.2759 36V29.4545H25.2816V36H24.2759ZM24.7873 28.3636C24.5913 28.3636 24.4222 28.2969 24.2802 28.1634C24.141 28.0298 24.0714 27.8693 24.0714 27.6818C24.0714 27.4943 24.141 27.3338 24.2802 27.2003C24.4222 27.0668 24.5913 27 24.7873 27C24.9833 27 25.1509 27.0668 25.2901 27.2003C25.4322 27.3338 25.5032 27.4943 25.5032 27.6818C25.5032 27.8693 25.4322 28.0298 25.2901 28.1634C25.1509 28.2969 24.9833 28.3636 24.7873 28.3636ZM28.1293 32.0625V36H27.1236V29.4545H28.0952V30.4773H28.1804C28.3338 30.1449 28.5668 29.8778 28.8793 29.6761C29.1918 29.4716 29.5952 29.3693 30.0895 29.3693C30.5327 29.3693 30.9205 29.4602 31.2528 29.642C31.5852 29.821 31.8438 30.0938 32.0284 30.4602C32.2131 30.8239 32.3054 31.2841 32.3054 31.8409V36H31.2997V31.9091C31.2997 31.3949 31.1662 30.9943 30.8991 30.7074C30.6321 30.4176 30.2656 30.2727 29.7997 30.2727C29.4787 30.2727 29.1918 30.3423 28.9389 30.4815C28.6889 30.6207 28.4915 30.8239 28.3466 31.0909C28.2017 31.358 28.1293 31.6818 28.1293 32.0625ZM36.7852 38.5909C36.2994 38.5909 35.8817 38.5284 35.5323 38.4034C35.1829 38.2812 34.8917 38.1193 34.6587 37.9176C34.4286 37.7188 34.2454 37.5057 34.109 37.2784L34.9102 36.7159C35.0011 36.8352 35.1161 36.9716 35.2553 37.125C35.3945 37.2812 35.5849 37.4162 35.8263 37.5298C36.0707 37.6463 36.3903 37.7045 36.7852 37.7045C37.3136 37.7045 37.7496 37.5767 38.0934 37.321C38.4371 37.0653 38.609 36.6648 38.609 36.1193V34.7898H38.5238C38.4499 34.9091 38.3448 35.0568 38.2085 35.233C38.0749 35.4062 37.8817 35.5611 37.6289 35.6974C37.3789 35.831 37.0408 35.8977 36.6147 35.8977C36.0863 35.8977 35.6119 35.7727 35.1914 35.5227C34.7738 35.2727 34.4428 34.9091 34.1985 34.4318C33.957 33.9545 33.8363 33.375 33.8363 32.6932C33.8363 32.0227 33.9542 31.4389 34.19 30.9418C34.4258 30.4418 34.7539 30.0554 35.1744 29.7827C35.5948 29.5071 36.0806 29.3693 36.6317 29.3693C37.0579 29.3693 37.396 29.4403 37.646 29.5824C37.8988 29.7216 38.092 29.8807 38.2255 30.0597C38.3619 30.2358 38.467 30.3807 38.5408 30.4943H38.6431V29.4545H39.6147V36.1875C39.6147 36.75 39.4869 37.2074 39.2312 37.5597C38.9783 37.9148 38.6374 38.1747 38.2085 38.3395C37.7823 38.5071 37.3079 38.5909 36.7852 38.5909ZM36.7511 34.9943C37.1545 34.9943 37.4954 34.902 37.7738 34.7173C38.0522 34.5327 38.2638 34.267 38.4087 33.9205C38.5536 33.5739 38.6261 33.1591 38.6261 32.6761C38.6261 32.2045 38.555 31.7884 38.413 31.4276C38.271 31.0668 38.0607 30.7841 37.7823 30.5795C37.5039 30.375 37.1602 30.2727 36.7511 30.2727C36.3249 30.2727 35.9698 30.3807 35.6857 30.5966C35.4045 30.8125 35.1928 31.1023 35.0508 31.4659C34.9116 31.8295 34.842 32.233 34.842 32.6761C34.842 33.1307 34.913 33.5327 35.055 33.8821C35.1999 34.2287 35.413 34.5014 35.6942 34.7003C35.9783 34.8963 36.3306 34.9943 36.7511 34.9943ZM46.092 30.9205L45.1886 31.1761C45.1317 31.0256 45.0479 30.8793 44.9371 30.7372C44.8292 30.5923 44.6815 30.473 44.494 30.3793C44.3065 30.2855 44.0664 30.2386 43.7738 30.2386C43.3732 30.2386 43.0394 30.331 42.7724 30.5156C42.5082 30.6974 42.3761 30.929 42.3761 31.2102C42.3761 31.4602 42.467 31.6577 42.6488 31.8026C42.8306 31.9474 43.1147 32.0682 43.5011 32.1648L44.4727 32.4034C45.0579 32.5455 45.494 32.7628 45.7809 33.0554C46.0678 33.3452 46.2113 33.7187 46.2113 34.1761C46.2113 34.5511 46.1033 34.8864 45.8874 35.1818C45.6744 35.4773 45.3761 35.7102 44.9925 35.8807C44.609 36.0511 44.163 36.1364 43.6545 36.1364C42.9869 36.1364 42.4343 35.9915 41.9968 35.7017C41.5593 35.4119 41.2823 34.9886 41.1658 34.4318L42.1204 34.1932C42.2113 34.5455 42.3832 34.8097 42.636 34.9858C42.8917 35.1619 43.2255 35.25 43.6374 35.25C44.1062 35.25 44.4783 35.1506 44.7539 34.9517C45.0323 34.75 45.1715 34.5085 45.1715 34.2273C45.1715 34 45.092 33.8097 44.9329 33.6562C44.7738 33.5 44.5295 33.3835 44.1999 33.3068L43.109 33.0511C42.5096 32.9091 42.0692 32.6889 41.788 32.3906C41.5096 32.0895 41.3704 31.7131 41.3704 31.2614C41.3704 30.892 41.4741 30.5653 41.6815 30.2812C41.8917 29.9972 42.1772 29.7741 42.538 29.6122C42.9016 29.4503 43.3136 29.3693 43.7738 29.3693C44.4215 29.3693 44.93 29.5114 45.2994 29.7955C45.6715 30.0795 45.9357 30.4545 46.092 30.9205Z" fill="#2C2C2C"/>
</svg>
