<svg width="76" height="39" viewBox="0 0 76 39" fill="none" xmlns="http://www.w3.org/2000/svg">
<path d="M40 9.45H39V8.45C39 8.18478 38.8947 7.93043 38.7071 7.74289C38.5196 7.55536 38.2652 7.45 38 7.45C37.7348 7.45 37.4804 7.55536 37.2929 7.74289C37.1054 7.93043 37 8.18478 37 8.45V9.45H36C35.7348 9.45 35.4804 9.55536 35.2929 9.74289C35.1054 9.93043 35 10.1848 35 10.45C35 10.7152 35.1054 10.9696 35.2929 11.1571C35.4804 11.3446 35.7348 11.45 36 11.45H37V12.45C37 12.7152 37.1054 12.9696 37.2929 13.1571C37.4804 13.3446 37.7348 13.45 38 13.45C38.2652 13.45 38.5196 13.3446 38.7071 13.1571C38.8947 12.9696 39 12.7152 39 12.45V11.45H40C40.2652 11.45 40.5196 11.3446 40.7071 11.1571C40.8947 10.9696 41 10.7152 41 10.45C41 10.1848 40.8947 9.93043 40.7071 9.74289C40.5196 9.55536 40.2652 9.45 40 9.45ZM46.46 9.63C46.3304 8.27183 45.8757 6.96482 45.1344 5.81943C44.3932 4.67403 43.387 3.7239 42.2011 3.04932C41.0152 2.37475 39.6844 1.99556 38.321 1.94379C36.9576 1.89202 35.6018 2.1692 34.3682 2.7519C33.1345 3.3346 32.0593 4.2057 31.2333 5.29158C30.4073 6.37747 29.8548 7.64623 29.6225 8.99066C29.3903 10.3351 29.4851 11.7157 29.8989 13.0157C30.3127 14.3158 31.0334 15.4972 32 16.46L37.3 21.77C37.393 21.8637 37.5036 21.9381 37.6254 21.9889C37.7473 22.0397 37.878 22.0658 38.01 22.0658C38.142 22.0658 38.2727 22.0397 38.3946 21.9889C38.5165 21.9381 38.6271 21.8637 38.72 21.77L44 16.46C44.8912 15.5755 45.5743 14.5036 45.9998 13.3223C46.4253 12.1409 46.5825 10.8797 46.46 9.63ZM42.6 15.05L38 19.65L33.4 15.05C32.7221 14.3721 32.2028 13.5523 31.8795 12.6498C31.5561 11.7472 31.4368 10.7842 31.53 9.83C31.6238 8.8611 31.9318 7.92516 32.4316 7.08984C32.9314 6.25453 33.6106 5.54071 34.42 5C35.481 4.29524 36.7263 3.9193 38 3.9193C39.2737 3.9193 40.5191 4.29524 41.58 5C42.387 5.53862 43.0647 6.24928 43.5644 7.08094C44.0641 7.9126 44.3733 8.8446 44.47 9.81C44.5663 10.7674 44.4484 11.7343 44.125 12.6405C43.8016 13.5468 43.2807 14.3698 42.6 15.05Z" fill="#2C2C2C"/>
<path d="M1.41477 36H0.306818L3.51136 27.2727H4.60227L7.80682 36H6.69886L4.09091 28.6534H4.02273L1.41477 36ZM1.82386 32.5909H6.28977V33.5284H1.82386V32.5909ZM11.5014 36.1364C10.956 36.1364 10.4744 35.9986 10.0568 35.723C9.6392 35.4446 9.3125 35.0526 9.0767 34.5469C8.84091 34.0384 8.72301 33.4375 8.72301 32.7443C8.72301 32.0568 8.84091 31.4602 9.0767 30.9545C9.3125 30.4489 9.64063 30.0582 10.0611 29.7827C10.4815 29.5071 10.9673 29.3693 11.5185 29.3693C11.9446 29.3693 12.2813 29.4403 12.5284 29.5824C12.7784 29.7216 12.9688 29.8807 13.0994 30.0597C13.233 30.2358 13.3366 30.3807 13.4105 30.4943H13.4957V27.2727H14.5014V36H13.5298V34.9943H13.4105C13.3366 35.1136 13.2315 35.2642 13.0952 35.446C12.9588 35.625 12.7642 35.7855 12.5114 35.9276C12.2585 36.0668 11.9219 36.1364 11.5014 36.1364ZM11.6378 35.233C12.0412 35.233 12.3821 35.1278 12.6605 34.9176C12.9389 34.7045 13.1506 34.4105 13.2955 34.0355C13.4403 33.6577 13.5128 33.2216 13.5128 32.7273C13.5128 32.2386 13.4418 31.8111 13.2997 31.4446C13.1577 31.0753 12.9474 30.7884 12.669 30.5838C12.3906 30.3764 12.0469 30.2727 11.6378 30.2727C11.2116 30.2727 10.8565 30.3821 10.5724 30.6009C10.2912 30.8168 10.0795 31.1108 9.9375 31.483C9.7983 31.8523 9.72869 32.267 9.72869 32.7273C9.72869 33.1932 9.79972 33.6165 9.94176 33.9972C10.0866 34.375 10.2997 34.6761 10.581 34.9006C10.8651 35.1222 11.2173 35.233 11.6378 35.233ZM18.9545 36.1364C18.4091 36.1364 17.9276 35.9986 17.5099 35.723C17.0923 35.4446 16.7656 35.0526 16.5298 34.5469C16.294 34.0384 16.1761 33.4375 16.1761 32.7443C16.1761 32.0568 16.294 31.4602 16.5298 30.9545C16.7656 30.4489 17.0938 30.0582 17.5142 29.7827C17.9347 29.5071 18.4205 29.3693 18.9716 29.3693C19.3977 29.3693 19.7344 29.4403 19.9815 29.5824C20.2315 29.7216 20.4219 29.8807 20.5526 30.0597C20.6861 30.2358 20.7898 30.3807 20.8636 30.4943H20.9489V27.2727H21.9545V36H20.983V34.9943H20.8636C20.7898 35.1136 20.6847 35.2642 20.5483 35.446C20.4119 35.625 20.2173 35.7855 19.9645 35.9276C19.7116 36.0668 19.375 36.1364 18.9545 36.1364ZM19.0909 35.233C19.4943 35.233 19.8352 35.1278 20.1136 34.9176C20.392 34.7045 20.6037 34.4105 20.7486 34.0355C20.8935 33.6577 20.9659 33.2216 20.9659 32.7273C20.9659 32.2386 20.8949 31.8111 20.7528 31.4446C20.6108 31.0753 20.4006 30.7884 20.1222 30.5838C19.8438 30.3764 19.5 30.2727 19.0909 30.2727C18.6648 30.2727 18.3097 30.3821 18.0256 30.6009C17.7443 30.8168 17.5327 31.1108 17.3906 31.483C17.2514 31.8523 17.1818 32.267 17.1818 32.7273C17.1818 33.1932 17.2528 33.6165 17.3949 33.9972C17.5398 34.375 17.7528 34.6761 18.0341 34.9006C18.3182 35.1222 18.6705 35.233 19.0909 35.233ZM27.4474 36V27.2727H28.5043V35.0625H32.5611V36H27.4474ZM36.7202 36.1364C36.1293 36.1364 35.6108 35.9957 35.1648 35.7145C34.7216 35.4332 34.375 35.0398 34.125 34.5341C33.8778 34.0284 33.7543 33.4375 33.7543 32.7614C33.7543 32.0795 33.8778 31.4844 34.125 30.9759C34.375 30.4673 34.7216 30.0724 35.1648 29.7912C35.6108 29.5099 36.1293 29.3693 36.7202 29.3693C37.3111 29.3693 37.8281 29.5099 38.2713 29.7912C38.7173 30.0724 39.0639 30.4673 39.3111 30.9759C39.5611 31.4844 39.6861 32.0795 39.6861 32.7614C39.6861 33.4375 39.5611 34.0284 39.3111 34.5341C39.0639 35.0398 38.7173 35.4332 38.2713 35.7145C37.8281 35.9957 37.3111 36.1364 36.7202 36.1364ZM36.7202 35.233C37.169 35.233 37.5384 35.1179 37.8281 34.8878C38.1179 34.6577 38.3324 34.3551 38.4716 33.9801C38.6108 33.6051 38.6804 33.1989 38.6804 32.7614C38.6804 32.3239 38.6108 31.9162 38.4716 31.5384C38.3324 31.1605 38.1179 30.8551 37.8281 30.6222C37.5384 30.3892 37.169 30.2727 36.7202 30.2727C36.2713 30.2727 35.902 30.3892 35.6122 30.6222C35.3224 30.8551 35.108 31.1605 34.9688 31.5384C34.8295 31.9162 34.7599 32.3239 34.7599 32.7614C34.7599 33.1989 34.8295 33.6051 34.9688 33.9801C35.108 34.3551 35.3224 34.6577 35.6122 34.8878C35.902 35.1179 36.2713 35.233 36.7202 35.233ZM43.8803 36.1364C43.2667 36.1364 42.7383 35.9915 42.2951 35.7017C41.8519 35.4119 41.511 35.0128 41.2724 34.5043C41.0337 33.9957 40.9144 33.4148 40.9144 32.7614C40.9144 32.0966 41.0366 31.5099 41.2809 31.0014C41.5281 30.4901 41.8718 30.0909 42.3121 29.804C42.7553 29.5142 43.2724 29.3693 43.8633 29.3693C44.3235 29.3693 44.7383 29.4545 45.1076 29.625C45.4769 29.7955 45.7795 30.0341 46.0153 30.3409C46.2511 30.6477 46.3974 31.0057 46.4542 31.4148H45.4485C45.3718 31.1165 45.2013 30.8523 44.9371 30.6222C44.6758 30.3892 44.3235 30.2727 43.8803 30.2727C43.4883 30.2727 43.1445 30.375 42.8491 30.5795C42.5565 30.7812 42.3278 31.0668 42.163 31.4361C42.0011 31.8026 41.9201 32.233 41.9201 32.7273C41.9201 33.233 41.9996 33.6733 42.1587 34.0483C42.3207 34.4233 42.5479 34.7145 42.8406 34.9219C43.136 35.1293 43.4826 35.233 43.8803 35.233C44.1417 35.233 44.3789 35.1875 44.592 35.0966C44.805 35.0057 44.9854 34.875 45.1332 34.7045C45.2809 34.5341 45.386 34.3295 45.4485 34.0909H46.4542C46.3974 34.4773 46.2567 34.8253 46.0323 35.1349C45.8107 35.4418 45.5167 35.6861 45.1502 35.8679C44.7866 36.0469 44.3633 36.1364 43.8803 36.1364ZM49.8505 36.1534C49.4357 36.1534 49.0593 36.0753 48.7212 35.919C48.3832 35.7599 48.1147 35.5312 47.9158 35.233C47.717 34.9318 47.6175 34.5682 47.6175 34.142C47.6175 33.767 47.6914 33.4631 47.8391 33.2301C47.9869 32.9943 48.1843 32.8097 48.4315 32.6761C48.6786 32.5426 48.9513 32.4432 49.2496 32.3778C49.5508 32.3097 49.8533 32.2557 50.1573 32.2159C50.555 32.1648 50.8775 32.1264 51.1246 32.1009C51.3746 32.0724 51.5565 32.0256 51.6701 31.9602C51.7866 31.8949 51.8448 31.7812 51.8448 31.6193V31.5852C51.8448 31.1648 51.7298 30.8381 51.4996 30.6051C51.2724 30.3722 50.9272 30.2557 50.4641 30.2557C49.984 30.2557 49.6076 30.3608 49.3349 30.571C49.0621 30.7812 48.8704 31.0057 48.7596 31.2443L47.805 30.9034C47.9755 30.5057 48.2028 30.196 48.4869 29.9744C48.7738 29.75 49.0863 29.5937 49.4244 29.5057C49.7653 29.4148 50.1005 29.3693 50.43 29.3693C50.6403 29.3693 50.8817 29.3949 51.1545 29.446C51.43 29.4943 51.6957 29.5952 51.9513 29.7486C52.2099 29.902 52.4244 30.1335 52.5948 30.4432C52.7653 30.7528 52.8505 31.1676 52.8505 31.6875V36H51.8448V35.1136H51.7937C51.7255 35.2557 51.6119 35.4077 51.4528 35.5696C51.2937 35.7315 51.082 35.8693 50.8178 35.983C50.5536 36.0966 50.2312 36.1534 49.8505 36.1534ZM50.0039 35.25C50.4016 35.25 50.7369 35.1719 51.0096 35.0156C51.2852 34.8594 51.4925 34.6577 51.6317 34.4105C51.7738 34.1634 51.8448 33.9034 51.8448 33.6307V32.7102C51.8022 32.7614 51.7085 32.8082 51.5636 32.8509C51.4215 32.8906 51.2567 32.9261 51.0692 32.9574C50.8846 32.9858 50.7042 33.0114 50.5281 33.0341C50.3548 33.054 50.2141 33.071 50.1062 33.0852C49.8448 33.1193 49.6005 33.1747 49.3732 33.2514C49.1488 33.3253 48.967 33.4375 48.8278 33.5881C48.6914 33.7358 48.6232 33.9375 48.6232 34.1932C48.6232 34.5426 48.7525 34.8068 49.011 34.9858C49.2724 35.1619 49.6033 35.25 50.0039 35.25ZM57.5327 29.4545V30.3068H54.1406V29.4545H57.5327ZM55.1293 27.8864H56.1349V34.125C56.1349 34.4091 56.1761 34.6222 56.2585 34.7642C56.3438 34.9034 56.4517 34.9972 56.5824 35.0455C56.7159 35.0909 56.8565 35.1136 57.0043 35.1136C57.1151 35.1136 57.206 35.108 57.277 35.0966C57.348 35.0824 57.4048 35.071 57.4474 35.0625L57.652 35.9659C57.5838 35.9915 57.4886 36.017 57.3665 36.0426C57.2443 36.071 57.0895 36.0852 56.902 36.0852C56.6179 36.0852 56.3395 36.0241 56.0668 35.902C55.7969 35.7798 55.5724 35.5938 55.3935 35.3438C55.2173 35.0938 55.1293 34.7784 55.1293 34.3977V27.8864ZM59.0455 36V29.4545H60.0511V36H59.0455ZM59.5568 28.3636C59.3608 28.3636 59.1918 28.2969 59.0497 28.1634C58.9105 28.0298 58.8409 27.8693 58.8409 27.6818C58.8409 27.4943 58.9105 27.3338 59.0497 27.2003C59.1918 27.0668 59.3608 27 59.5568 27C59.7528 27 59.9205 27.0668 60.0597 27.2003C60.2017 27.3338 60.2727 27.4943 60.2727 27.6818C60.2727 27.8693 60.2017 28.0298 60.0597 28.1634C59.9205 28.2969 59.7528 28.3636 59.5568 28.3636ZM64.5522 36.1364C63.9613 36.1364 63.4428 35.9957 62.9968 35.7145C62.5536 35.4332 62.207 35.0398 61.957 34.5341C61.7099 34.0284 61.5863 33.4375 61.5863 32.7614C61.5863 32.0795 61.7099 31.4844 61.957 30.9759C62.207 30.4673 62.5536 30.0724 62.9968 29.7912C63.4428 29.5099 63.9613 29.3693 64.5522 29.3693C65.1431 29.3693 65.6602 29.5099 66.1033 29.7912C66.5494 30.0724 66.896 30.4673 67.1431 30.9759C67.3931 31.4844 67.5181 32.0795 67.5181 32.7614C67.5181 33.4375 67.3931 34.0284 67.1431 34.5341C66.896 35.0398 66.5494 35.4332 66.1033 35.7145C65.6602 35.9957 65.1431 36.1364 64.5522 36.1364ZM64.5522 35.233C65.0011 35.233 65.3704 35.1179 65.6602 34.8878C65.9499 34.6577 66.1644 34.3551 66.3036 33.9801C66.4428 33.6051 66.5124 33.1989 66.5124 32.7614C66.5124 32.3239 66.4428 31.9162 66.3036 31.5384C66.1644 31.1605 65.9499 30.8551 65.6602 30.6222C65.3704 30.3892 65.0011 30.2727 64.5522 30.2727C64.1033 30.2727 63.734 30.3892 63.4442 30.6222C63.1545 30.8551 62.94 31.1605 62.8008 31.5384C62.6616 31.9162 62.592 32.3239 62.592 32.7614C62.592 33.1989 62.6616 33.6051 62.8008 33.9801C62.94 34.3551 63.1545 34.6577 63.4442 34.8878C63.734 35.1179 64.1033 35.233 64.5522 35.233ZM70.0589 32.0625V36H69.0533V29.4545H70.0249V30.4773H70.1101C70.2635 30.1449 70.4964 29.8778 70.8089 29.6761C71.1214 29.4716 71.5249 29.3693 72.0192 29.3693C72.4624 29.3693 72.8501 29.4602 73.1825 29.642C73.5149 29.821 73.7734 30.0938 73.9581 30.4602C74.1428 30.8239 74.2351 31.2841 74.2351 31.8409V36H73.2294V31.9091C73.2294 31.3949 73.0959 30.9943 72.8288 30.7074C72.5618 30.4176 72.1953 30.2727 71.7294 30.2727C71.4084 30.2727 71.1214 30.3423 70.8686 30.4815C70.6186 30.6207 70.4212 30.8239 70.2763 31.0909C70.1314 31.358 70.0589 31.6818 70.0589 32.0625Z" fill="#2C2C2C"/>
</svg>
