<?xml version="1.0" encoding="UTF-8" standalone="no"?>
<!-- Created with Inkscape (http://www.inkscape.org/) -->

<svg
   width="500"
   height="500"
   viewBox="0 0 132.29166 132.29167"
   version="1.1"
   id="svg5"
   xml:space="preserve"
   inkscape:version="1.2.2 (732a01da63, 2022-12-09)"
   sodipodi:docname="drawingfgsdfasda.svg"
   inkscape:export-filename="Basket_Finder.svg"
   inkscape:export-xdpi="96"
   inkscape:export-ydpi="96"
   xmlns:inkscape="http://www.inkscape.org/namespaces/inkscape"
   xmlns:sodipodi="http://sodipodi.sourceforge.net/DTD/sodipodi-0.dtd"
   xmlns="http://www.w3.org/2000/svg"
   xmlns:svg="http://www.w3.org/2000/svg"><sodipodi:namedview
     id="namedview7"
     pagecolor="#ffffff"
     bordercolor="#999999"
     borderopacity="1"
     inkscape:showpageshadow="0"
     inkscape:pageopacity="0"
     inkscape:pagecheckerboard="0"
     inkscape:deskcolor="#d1d1d1"
     inkscape:document-units="mm"
     showgrid="false"
     inkscape:zoom="0.55074657"
     inkscape:cx="13.617879"
     inkscape:cy="383.11632"
     inkscape:window-width="1440"
     inkscape:window-height="829"
     inkscape:window-x="-8"
     inkscape:window-y="-8"
     inkscape:window-maximized="1"
     inkscape:current-layer="svg5" /><defs
     id="defs2" /><g
     inkscape:groupmode="layer"
     id="layer2"
     inkscape:label="basket"
     style="display:inline"><path
       d="m 49.203432,37.128585 m 8.732806,35.491366 C 57.579832,72.492908 57.015416,72.168157 56.681977,71.898281 56.348531,71.628403 55.896871,71.060067 55.678283,70.63531 55.288703,69.878276 55.27005,69.629151 54.733696,58.019378 54.432763,51.50537 54.178286,46.166317 54.1682,46.154813 c -0.01008,-0.0115 -0.256773,-0.0686 -0.548196,-0.12689 -0.291424,-0.05829 -0.770283,-0.289349 -1.064126,-0.513475 -0.293849,-0.224126 -0.657814,-0.667861 -0.808813,-0.986076 -0.151007,-0.318215 -0.274556,-0.822008 -0.274556,-1.119541 0,-0.297533 0.09158,-0.850908 0.203505,-1.229721 0.128207,-0.433938 0.515137,-1.000392 1.045839,-1.531097 0.530709,-0.530706 1.097156,-0.917632 1.531098,-1.045843 0.3931,-0.116146 1.668066,-0.203498 2.970188,-0.203498 1.999533,0 2.281439,-0.03379 2.281439,-0.273422 0,-0.150382 0.09158,-0.583361 0.203498,-0.962175 0.12776,-0.432394 0.51703,-1.003619 1.045846,-1.534691 0.586014,-0.588515 1.074391,-0.910635 1.604891,-1.058548 0.536404,-0.149558 1.777008,-0.196436 4.18337,-0.158071 3.126998,0.04986 3.478313,0.08556 4.090159,0.415718 0.36814,0.198648 0.86782,0.575151 1.11041,0.836674 0.242583,0.261522 0.556152,0.703999 0.696828,0.983282 0.140661,0.279282 0.308241,0.787562 0.372387,1.12951 l 0.116637,0.621723 h 2.262821 c 1.2875,0 2.55968,0.08771 2.951571,0.203498 0.433935,0.128211 1.000389,0.515137 1.531091,1.045843 0.530709,0.530705 0.917632,1.097159 1.045846,1.531097 0.111922,0.378813 0.203498,0.932188 0.203498,1.229721 0,0.297533 -0.123549,0.801326 -0.274556,1.119541 -0.150999,0.318215 -0.514964,0.76195 -0.808813,0.986076 -0.293843,0.224126 -0.772702,0.455191 -1.064126,0.513475 -0.291423,0.05829 -0.538117,0.115386 -0.548196,0.12689 -0.01008,0.0115 -0.264555,5.350557 -0.565496,11.864565 -0.539997,11.688745 -0.552466,11.853962 -0.952975,12.632231 -0.223202,0.433721 -0.723637,1.030991 -1.11208,1.327267 -0.388449,0.296277 -0.986739,0.616578 -1.329544,0.711783 -0.388572,0.107918 -3.458817,0.170687 -8.153343,0.16669 -5.966042,-0.0051 -7.664655,-0.05439 -8.178064,-0.237398 z M 73.970102,69.79408 c 0.317017,-0.317018 0.41382,-0.636435 0.494431,-1.631514 0.05515,-0.680529 0.289336,-5.567111 0.52045,-10.859073 0.231115,-5.291963 0.419349,-9.979429 0.418306,-10.416591 l -0.0022,-0.794839 h -9.203443 -9.203415 l -0.0022,0.794839 c -7.2e-4,0.437162 0.18719,5.124628 0.418305,10.416591 0.231114,5.291962 0.46531,10.178544 0.520443,10.859073 0.08062,0.995079 0.177414,1.314496 0.494431,1.631514 l 0.394231,0.394191 h 7.377948 7.37794 z M 59.91531,65.761504 59.504578,65.350774 v -7.210607 -7.210608 l 0.410732,-0.41073 c 0.258911,-0.258908 0.601918,-0.410732 0.927949,-0.410732 0.326031,0 0.669038,0.151824 0.927949,0.410732 l 0.410731,0.41073 v 7.210608 7.210607 l -0.410731,0.41073 c -0.258911,0.258907 -0.601918,0.410731 -0.927949,0.410731 -0.326031,0 -0.669038,-0.151824 -0.927949,-0.410731 z m 5.354715,0 -0.410732,-0.41073 v -7.210607 -7.210608 l 0.410732,-0.41073 c 0.258904,-0.258908 0.601918,-0.410732 0.927949,-0.410732 0.326023,0 0.669037,0.151824 0.927941,0.410732 l 0.410732,0.41073 v 7.210608 7.210607 l -0.410732,0.41073 c -0.258904,0.258907 -0.601918,0.410731 -0.927941,0.410731 -0.326031,0 -0.669045,-0.151824 -0.927949,-0.410731 z m 5.354715,0 -0.410732,-0.41073 v -7.210607 -7.210608 l 0.410732,-0.41073 c 0.258903,-0.258908 0.60191,-0.410732 0.927941,-0.410732 0.326031,0 0.669045,0.151824 0.927949,0.410732 l 0.410732,0.41073 v 7.210608 7.210607 l -0.410732,0.41073 c -0.258904,0.258907 -0.601918,0.410731 -0.927949,0.410731 -0.326031,0 -0.669038,-0.151824 -0.927941,-0.410731 z m 7.621337,-22.605405 c 0,-0.142235 -0.18483,-0.443438 -0.410732,-0.66934 L 77.424614,42.076028 H 66.197974 54.971326 l -0.410724,0.410731 c -0.225902,0.225902 -0.410732,0.527105 -0.410732,0.66934 0,0.23086 1.292742,0.258607 12.048104,0.258607 10.755354,0 12.048103,-0.02775 12.048103,-0.258607 z m -8.032069,-3.849405 c 0,-0.05059 -0.110172,-0.305014 -0.244815,-0.565394 -0.13465,-0.26038 -0.366707,-0.520192 -0.515691,-0.577362 -0.148984,-0.05717 -1.661205,-0.103945 -3.360488,-0.103945 -3.057222,0 -3.093924,0.0043 -3.500343,0.410732 -0.225902,0.225902 -0.410732,0.527105 -0.410732,0.669339 0,0.226071 0.505281,0.258608 4.016035,0.258608 2.208818,0 4.016034,-0.04139 4.016034,-0.09198 z"
       style="display:inline;fill:#008000;fill-opacity:1;fill-rule:nonzero;stroke-width:0.167335"
       id="path5764" /></g><g
     inkscape:groupmode="layer"
     id="layer1"
     inkscape:label="marker"><path
       id="circle1544"
       style="display:inline;opacity:1;fill:#008000;fill-opacity:0.615599;fill-rule:evenodd;stroke:#008000;stroke-width:3;stroke-dasharray:none;stroke-opacity:1"
       d="m 110.70568,55.105335 c 0,35.178709 -36.524215,62.575155 -44.559844,62.575155 -7.315015,0 -44.079433,-25.234609 -44.559841,-62.575155 -0.316592,-24.607685 19.95012,-44.559841 44.559841,-44.559841 24.609722,-2e-6 44.559844,19.950119 44.559844,44.559841 z m -13.970465,0 c 10e-7,16.894048 -13.695331,30.58938 -30.589379,30.58938 -16.894048,0 -30.58938,-13.695332 -30.589379,-30.58938 0,-16.894048 13.695331,-30.589379 30.589379,-30.589379 16.894048,0 30.589379,13.695331 30.589379,30.589379 z"
       sodipodi:nodetypes="ssssssssss" /></g></svg>
