<svg width="40" height="50" viewBox="0 0 40 50" fill="none" xmlns="http://www.w3.org/2000/svg">
<path d="M8.77399 49.5L3.66407 7.21643H36.5359L31.426 49.5H8.77399Z" fill="black" stroke="#37EB73"/>
<path d="M2.31224 3.3302H37.6878C38.6886 3.3302 39.5 4.14156 39.5 5.14244C39.5 6.14331 38.6886 6.95468 37.6878 6.95468H2.31224C1.31137 6.95468 0.5 6.14331 0.5 5.14244C0.5 4.14156 1.31137 3.3302 2.31224 3.3302Z" fill="black" stroke="#37EB73"/>
<path d="M20 12.4214C17.3478 12.4214 14.8043 13.6804 12.9289 15.9214C11.0536 18.1624 10 21.2018 10 24.3711C10 32.4371 18.8125 41.5487 19.1875 41.9371C19.4139 42.1685 19.7021 42.2957 20 42.2957C20.2979 42.2957 20.5861 42.1685 20.8125 41.9371C21.25 41.5487 30 32.4371 30 24.3711C30 21.2018 28.9464 18.1624 27.0711 15.9214C25.1957 13.6804 22.6522 12.4214 20 12.4214V12.4214ZM20 38.7854C17.3375 35.798 12.5 29.3601 12.5 24.3711C12.5 21.9941 13.2902 19.7145 14.6967 18.0338C16.1032 16.353 18.0109 15.4088 20 15.4088C21.9891 15.4088 23.8968 16.353 25.3033 18.0338C26.7098 19.7145 27.5 21.9941 27.5 24.3711C27.5 29.3601 22.6625 35.8129 20 38.7854ZM20 18.3962C19.0111 18.3962 18.0444 18.7466 17.2221 19.4032C16.3999 20.0597 15.759 20.9928 15.3806 22.0846C15.0022 23.1764 14.9031 24.3777 15.0961 25.5367C15.289 26.6957 15.7652 27.7603 16.4645 28.5959C17.1637 29.4315 18.0546 30.0006 19.0245 30.2311C19.9945 30.4616 20.9998 30.3433 21.9134 29.8911C22.827 29.4389 23.6079 28.6731 24.1573 27.6905C24.7068 26.708 25 25.5528 25 24.3711C25 22.7864 24.4732 21.2667 23.5355 20.1462C22.5979 19.0257 21.3261 18.3962 20 18.3962ZM20 27.3585C19.5055 27.3585 19.0222 27.1833 18.6111 26.855C18.2 26.5268 17.8795 26.0602 17.6903 25.5143C17.5011 24.9684 17.4516 24.3678 17.548 23.7883C17.6445 23.2088 17.8826 22.6764 18.2322 22.2586C18.5819 21.8408 19.0273 21.5563 19.5123 21.4411C19.9972 21.3258 20.4999 21.3849 20.9567 21.6111C21.4135 21.8372 21.804 22.2201 22.0787 22.7113C22.3534 23.2026 22.5 23.7802 22.5 24.3711C22.5 25.1634 22.2366 25.9232 21.7678 26.4835C21.2989 27.0437 20.663 27.3585 20 27.3585Z" fill="#37EB73"/>
<ellipse cx="20" cy="24.5283" rx="5.68966" ry="6.60377" fill="black"/>
<path d="M15 0.5H25C26.3807 0.5 27.5 1.61929 27.5 3V3.23134H12.5V3C12.5 1.61929 13.6193 0.5 15 0.5Z" fill="black" stroke="#37EB73"/>
<path d="M23.75 25C23.75 26.6144 23.3133 28.0646 22.6204 29.104C21.9264 30.1451 20.995 30.75 20 30.75C19.005 30.75 18.0736 30.1451 17.3796 29.104C16.6867 28.0646 16.25 26.6144 16.25 25C16.25 23.3856 16.6867 21.9354 17.3796 20.896C18.0736 19.8549 19.005 19.25 20 19.25C20.995 19.25 21.9264 19.8549 22.6204 20.896C23.3133 21.9354 23.75 23.3856 23.75 25Z" fill="#37EB73" stroke="black" stroke-width="0.5"/>
<path d="M20 19.3529V30.647" stroke="black" stroke-width="0.5"/>
<path d="M20 28.5295L16.3637 24.6471" stroke="black" stroke-width="0.5"/>
<path d="M20 28.5294L23.6363 25" stroke="black" stroke-width="0.5"/>
<path d="M20 25.0001L17.091 21.8236" stroke="black" stroke-width="0.5"/>
<path d="M20 25L22.9091 22" stroke="black" stroke-width="0.5"/>
</svg>
