<svg width="18" height="18" viewBox="0 0 18 18" fill="none" xmlns="http://www.w3.org/2000/svg">
<path fill-rule="evenodd" clip-rule="evenodd" d="M17.9073 0.594351C17.9661 0.530412 18 0.436014 18 0.336515C18 0.150663 17.8839 0 17.7407 0H0.402584C0.180243 0 0 0.233887 0 0.522401C0 0.677704 0.0532505 0.824955 0.145304 0.924204L8.5976 10.0372C8.78179 10.2358 9.04908 10.235 9.23256 10.0353L17.9073 0.594351ZM0.812016 3.59324C0.48921 3.2452 0 3.54309 0 4.0877V17.3571C0 17.7122 0.221804 18 0.495413 18H17.5046C17.7782 18 18 17.7122 18 17.3571V3.82942C18 3.28343 17.5086 2.98601 17.1862 3.33687L9.28885 11.9318L9.23604 11.9893C9.05256 12.189 8.78526 12.1898 8.60108 11.9912L8.54806 11.934L0.812016 3.59324Z" fill="#2C2C2C"/>
</svg>
